<svg xmlns="http://www.w3.org/2000/svg" viewBox="0 0 260 76"><path fill="#404041" d="M86.05,45.67c-1.54,0-2.76-.63-3.4-1.96-.83-1.83-.54-4.67,1.31-5.77,1.87-1.14,5.11-.49,5.39,2.04h-1.38c-.31-1.36-2.35-1.56-3.31-.85-.74.55-.99,1.47-.99,2.38,0,.92.27,1.89,1.03,2.44.96.71,2.99.52,3.33-.83h1.45c-.25,1.68-1.81,2.59-3.43,2.56ZM92.44,45.66c-1.04.02-2.12-.66-2.08-1.8-.05-1.08.76-1.67,1.74-1.79.6-.11,1.6-.07,2.22-.07,0-.48-.12-.9-.52-1.15-.52-.3-1.59-.25-1.83.42h-1.43c.34-2.16,4.11-2.47,4.85-.47.44.87.21,3.72.26,4.79h-1.23l-.03-.73c-.47.62-1.23.81-1.96.81ZM92.76,44.52c.91.03,1.68-.62,1.58-1.55-.61.03-1.56-.07-2.14.11-.46.12-.6.73-.33,1.09.2.26.55.36.88.36ZM97.06,45.58v-6.02h1.39v2.42h2.51v-2.42h1.39v6.02h-1.39v-2.35h-2.51v2.35h-1.39ZM103.77,45.58v-6.02h1.39v2.41h.96l1.56-2.41h1.57l-1.93,2.84,2,3.18h-1.61l-1.49-2.38h-1.06v2.38h-1.39ZM111.81,45.58v-4.79h-1.98v-1.23h5.37v1.23h-2v4.79h-1.39ZM115.53,42.93v-1.26h3.76v1.26h-3.76ZM120.81,45.58v-8.08h6.59v8.08h-1.43v-6.79h-3.74v6.79h-1.43ZM131.6,45.66c-3.09.24-3.94-4.34-1.57-5.79,2.15-1.34,4.86.67,4.26,3.15h-4.22c-.05,1.44,2.16,2.04,2.81.78h1.39c-.25,1.27-1.47,1.88-2.67,1.86ZM130.09,41.98h2.9c.05-1.81-2.88-1.75-2.9,0ZM136.91,45.58v-4.79h-1.98v-1.23h5.37v1.23h-2v4.79h-1.39ZM143.78,45.66c-2.58.09-3.52-2.64-2.57-4.69.61-1.36,2.43-1.85,3.76-1.27,1.07.47,1.59,1.63,1.55,2.77,0,.19-.02.36-.05.55h-4.22c.05.51.27.99.71,1.26.59.34,1.81.28,2.09-.48h1.39c-.25,1.27-1.47,1.88-2.67,1.86ZM142.28,41.98h2.9c0-1.83-2.83-1.76-2.9,0ZM147.69,47.79v-8.24h1.3l.07.82c.73-1.05,2.44-1.17,3.4-.5.85.6,1.15,1.64,1.15,2.7,0,1.07-.31,2.09-1.18,2.68-.89.61-2.58.57-3.35-.31v2.86h-1.39ZM150.7,44.4c1.46.08,1.78-1.65,1.39-2.73-.4-1.28-2.38-1.25-2.83-.01-.5,1.12,0,2.82,1.45,2.74ZM157.5,45.66c-1.98.07-3.01-1.74-2.95-3.53-.01-1.82.13-3.95,2.22-4.41,1.05-.31,2.27-.34,3.33-.56v1.38c-.76.2-1.56.18-2.34.29-.6.07-1.2.19-1.56.71-.26.37-.37.89-.38,1.35.71-1.07,2.43-1.21,3.42-.6,1.26.77,1.45,2.72.81,3.95-.51.95-1.44,1.43-2.55,1.42ZM157.51,44.42c1.98.06,2.04-3.3.02-3.23-2.01-.05-2.04,3.27-.02,3.23ZM161.49,48.27v-1.39c.87.03,1.41-.29,1.76-1.06l-2.55-6.26h1.62l1.73,4.67,1.37-4.67h1.53l-1.62,5.04c-.64,2-1.35,3.87-3.83,3.68ZM167.74,47.79v-8.24h1.3l.07.82c.73-1.05,2.44-1.17,3.4-.5.85.6,1.15,1.64,1.15,2.7,0,1.07-.31,2.09-1.18,2.68-.89.61-2.58.57-3.35-.31v2.86h-1.39ZM170.76,44.4c1.46.08,1.78-1.65,1.39-2.73-.4-1.28-2.38-1.25-2.83-.01-.5,1.12,0,2.82,1.45,2.74ZM174.82,45.58v-6.02h4.27v1.23h-2.87v4.79h-1.39ZM182.57,45.66c-1.15,0-2.06-.46-2.54-1.46-.64-1.38-.4-3.51,1.01-4.33,1.5-.88,3.99-.34,4.15,1.69h-1.37c-.22-.92-1.5-1.05-2.12-.55-.46.38-.63,1-.63,1.58,0,.59.18,1.21.66,1.57.61.45,1.92.33,2.1-.57h1.41c-.12,1.38-1.4,2.1-2.68,2.08ZM186.34,45.58v-6.02h1.39v2.41h.96l1.56-2.41h1.57l-1.93,2.84,2,3.18h-1.61l-1.49-2.38h-1.06v2.38h-1.39ZM192.72,45.58v-6.02h1.39v3.92c.13-.25,2.71-3.59,2.94-3.92h1.23v6.02h-1.38v-3.87c-.16.28-2.67,3.52-2.92,3.87h-1.27ZM199.71,45.58v-6.02h1.39v3.92c.08-.15.26-.39.37-.51l2.58-3.4h1.23v6.02h-1.38v-3.87c-.11.19-.25.36-.38.53l-2.54,3.35h-1.27ZM202.58,38.94c-1.21,0-2.08-.54-2.09-1.79h1.19c0,.58.38.78.91.79.53,0,.9-.21.91-.79h1.19c.02,1.2-.97,1.84-2.11,1.79ZM82.98,56.37v-6.02h5.3v6.02h-1.39v-4.79h-2.52v4.79h-1.39ZM92.43,56.45c-2.6.09-3.6-2.64-2.62-4.72.94-1.96,4.28-1.98,5.21.01.96,2.07.02,4.8-2.59,4.71ZM92.41,55.18c1.44.08,1.86-1.61,1.43-2.71-.39-1.25-2.47-1.25-2.86,0-.44,1.11-.02,2.79,1.44,2.71ZM95.94,56.38v-1.26c.92-.02.99-1.15,1.05-1.87.06-.94.09-1.99.1-2.9h4.52v6.02h-1.39v-4.79h-1.84c-.03.8-.04,1.68-.15,2.48-.07.58-.17,1.24-.52,1.72-.47.56-.99.57-1.77.59ZM104.3,56.37c.25-.35,2.76-3.59,2.92-3.87v3.87h1.38v-6.02h-1.23c-.23.33-2.81,3.66-2.94,3.92v-3.92h-1.39v6.02h1.27ZM111.43,56.37v-4.79h-1.98v-1.23h5.37v1.23h-2v4.79h-1.39ZM118.3,56.45c-2.58.09-3.52-2.64-2.57-4.69.61-1.36,2.43-1.85,3.76-1.27,1.07.47,1.59,1.63,1.55,2.77,0,.19-.02.36-.05.55h-4.22c.05.51.27.99.71,1.26.59.34,1.81.28,2.09-.48h1.39c-.25,1.27-1.47,1.88-2.67,1.86ZM116.79,52.77h2.9c0-1.83-2.83-1.76-2.9,0ZM121.36,56.37l2.12-3.07-2.01-2.95h1.62l1.3,2.02,1.27-2.02h1.59l-2.01,2.98,2.16,3.04h-1.63l-1.43-2.08-1.43,2.08h-1.55ZM128.22,56.37v-6.02h1.39v2.42h2.51v-2.42h1.39v6.02h-1.39v-2.35h-2.51v2.35h-1.39ZM134.93,56.37v-6.02h1.39v3.92c.08-.15.26-.39.37-.51l2.58-3.4h1.23v6.02h-1.38v-3.87c-.11.19-.25.36-.38.53l-2.54,3.35h-1.27ZM145.27,56.37v-2.12c-2.05.32-3.74.06-3.68-2.39,0,0,0-1.51,0-1.51h1.39c.04,2.16-.41,3.07,2.29,2.65v-2.65h1.39v6.02h-1.39ZM150.75,56.45c-2.58.09-3.52-2.64-2.57-4.69.61-1.36,2.43-1.85,3.76-1.27,1.07.47,1.59,1.63,1.55,2.77,0,.19-.02.36-.05.55h-4.22c.05.51.27.99.71,1.26.59.34,1.81.28,2.09-.48h1.39c-.25,1.27-1.47,1.88-2.67,1.86ZM149.25,52.77h2.9c0-1.83-2.83-1.76-2.9,0ZM157.26,56.45c-1.15,0-2.06-.46-2.54-1.46-.64-1.38-.4-3.51,1.01-4.33,1.5-.88,3.99-.34,4.15,1.69h-1.37c-.22-.92-1.5-1.05-2.12-.55-.46.38-.63,1-.63,1.58,0,.59.18,1.21.66,1.57.61.45,1.92.33,2.1-.57h1.41c-.12,1.38-1.4,2.1-2.68,2.08ZM161.03,56.37v-6.02h1.39v2.41h.96l1.56-2.41h1.57l-1.93,2.84,2,3.18h-1.61l-1.49-2.38h-1.06v2.38h-1.39ZM167.4,56.37v-6.02h1.39v3.92c.08-.15.26-.39.37-.51l2.58-3.4h1.23v6.02h-1.38v-3.87c-.11.19-.25.36-.38.53l-2.54,3.35h-1.27ZM174.39,56.37v-6.02h1.39v3.92c.08-.15.26-.39.37-.51l2.58-3.4h1.23v6.02h-1.38v-3.87c-.11.19-.25.36-.38.53l-2.54,3.35h-1.27ZM177.27,49.73c-1.21,0-2.08-.54-2.09-1.79h1.19c0,.58.38.78.91.79.53,0,.9-.21.91-.79h1.19c.02,1.2-.97,1.84-2.11,1.79ZM184.73,59.07v-1.39c.87.03,1.41-.29,1.76-1.06l-2.55-6.26h1.62l1.73,4.67,1.37-4.67h1.53l-1.62,5.04c-.64,2-1.35,3.87-3.83,3.68ZM190.98,56.37v-6.02h1.39v2.42h2.51v-2.42h1.39v6.02h-1.39v-2.35h-2.51v2.35h-1.39ZM197.69,56.37v-6.02h1.39v3.92c.13-.25,2.71-3.59,2.94-3.92h1.23v6.02h-1.38v-3.87c-.16.28-2.67,3.52-2.92,3.87h-1.27ZM204.69,56.37v-6.02h2.73c.49,0,1.06.04,1.49.27.95.43.97,2.04.01,2.51,1.28.3,1.28,2.21.28,2.82-.43.29-.99.42-1.51.42h-3ZM206.09,52.82c.5-.02,1.29.07,1.77-.12.44-.13.61-.69.28-.99-.23-.18-.58-.19-.86-.19h-1.19v1.3ZM206.09,55.16h1.43c.46,0,1.04-.11,1.03-.67.02-.66-.72-.69-1.21-.69,0,0-1.24,0-1.24,0v1.36ZM213.71,56.45c-2.58.09-3.52-2.64-2.57-4.69.61-1.36,2.43-1.85,3.76-1.27,1.07.47,1.59,1.63,1.55,2.77,0,.19-.02.36-.05.55h-4.22c.05.51.27.99.71,1.26.59.34,1.81.28,2.09-.48h1.39c-.25,1.27-1.47,1.88-2.67,1.86ZM212.2,52.77h2.9c0-1.83-2.83-1.76-2.9,0ZM217.61,58.59v-8.24h1.3l.07.82c.73-1.05,2.44-1.17,3.4-.5.85.6,1.15,1.64,1.15,2.7,0,1.07-.31,2.09-1.18,2.68-.89.61-2.58.57-3.35-.31v2.86h-1.39ZM220.62,55.19c1.46.08,1.78-1.65,1.39-2.73-.4-1.28-2.38-1.25-2.83-.01-.5,1.12,0,2.82,1.45,2.74ZM227.27,56.45c-1.15,0-2.06-.46-2.54-1.46-.64-1.38-.4-3.51,1.01-4.33,1.5-.88,3.99-.34,4.15,1.69h-1.37c-.22-.92-1.5-1.05-2.12-.55-.46.38-.63,1-.63,1.58,0,.59.18,1.21.66,1.57.61.45,1.92.33,2.1-.57h1.41c-.12,1.38-1.4,2.1-2.68,2.08ZM231.04,56.37v-6.02h1.39v3.92c.13-.25,2.71-3.59,2.94-3.92h1.23v6.02h-1.38v-3.87c-.16.28-2.67,3.52-2.92,3.87h-1.27ZM239.43,56.37v-4.79h-1.98v-1.23h5.37v1.23h-2v4.79h-1.39ZM246.3,56.45c-2.58.09-3.52-2.64-2.57-4.69.61-1.36,2.43-1.85,3.76-1.27,1.07.47,1.59,1.63,1.55,2.77,0,.19-.02.36-.05.55h-4.22c.05.51.27.99.71,1.26.59.34,1.81.28,2.09-.48h1.39c-.25,1.27-1.47,1.88-2.67,1.86ZM244.8,52.77h2.9c0-1.83-2.83-1.76-2.9,0ZM251.61,56.37v-4.79h-1.98v-1.23h5.37v1.23h-2v4.79h-1.39ZM82.98,67.49v-8.08h6.59v8.08h-1.43v-6.79h-3.74v6.79h-1.43ZM93.76,67.57c-2.58.09-3.52-2.64-2.57-4.69.61-1.36,2.43-1.85,3.76-1.27,1.07.47,1.59,1.63,1.55,2.77,0,.19-.02.36-.05.55h-4.22c.05.51.27.99.71,1.26.59.34,1.81.28,2.09-.48h1.39c-.25,1.27-1.47,1.88-2.67,1.86ZM92.26,63.89h2.9c0-1.83-2.83-1.76-2.9,0ZM99.07,67.49v-4.79h-1.98v-1.23h5.37v1.23h-2v4.79h-1.39ZM103.3,69.7v-8.24h1.3l.07.82c.73-1.05,2.44-1.17,3.4-.5.85.6,1.15,1.64,1.15,2.7,0,1.07-.31,2.09-1.18,2.68-.89.61-2.58.57-3.35-.31v2.86h-1.39ZM106.31,66.31c1.46.08,1.78-1.65,1.39-2.73-.4-1.28-2.38-1.25-2.83-.01-.5,1.12,0,2.82,1.45,2.74ZM112.15,67.57c-1.04.02-2.12-.66-2.08-1.8-.05-1.08.76-1.67,1.74-1.79.6-.11,1.6-.07,2.22-.07,0-.48-.12-.9-.52-1.15-.52-.3-1.59-.25-1.83.42h-1.43c.34-2.16,4.11-2.47,4.85-.47.44.87.21,3.72.26,4.79h-1.23l-.03-.73c-.47.62-1.23.81-1.96.81ZM112.47,66.44c.91.03,1.68-.62,1.58-1.55-.61.03-1.56-.07-2.14.11-.46.12-.6.73-.33,1.09.2.26.55.36.88.36ZM120.08,67.49v-8.08h3.31c.66,0,1.33.07,1.85.43,1.06.73.99,2.77-.26,3.31,1.71.35,1.81,3.06.41,3.84-.66.39-1.47.48-2.26.49,0,0-3.04,0-3.04,0ZM121.51,62.79c.45-.02,1.73.05,2.14-.07.35-.09.64-.25.81-.55.17-.28.15-.89-.06-1.11-.28-.31-.74-.34-1.17-.35,0,0-1.72,0-1.72,0v2.08ZM121.51,66.18h1.7c.74,0,1.77-.17,1.72-1.12.05-.84-.78-1.1-1.47-1.07,0,0-1.95,0-1.95,0v2.19ZM130.18,67.57c-2.58.09-3.52-2.64-2.57-4.69.61-1.36,2.43-1.85,3.76-1.27,1.07.47,1.59,1.63,1.55,2.77,0,.19-.02.36-.05.55h-4.22c.05.51.27.99.71,1.26.59.34,1.81.28,2.09-.48h1.39c-.25,1.27-1.47,1.88-2.67,1.86ZM128.67,63.89h2.9c0-1.83-2.83-1.76-2.9,0ZM133.57,67.5v-1.26c.92-.02.99-1.15,1.05-1.87.06-.94.09-1.99.1-2.9h4.52v6.02h-1.39v-4.79h-1.84c-.03.8-.04,1.68-.15,2.48-.07.58-.17,1.24-.52,1.72-.47.56-.99.57-1.77.59ZM140.66,67.49v-6.02h1.39v3.92c.08-.15.26-.39.37-.51l2.58-3.4h1.23v6.02h-1.38v-3.87c-.11.19-.25.36-.38.53l-2.54,3.35h-1.27ZM147.65,67.49v-6.02h1.39v2.41h.96l1.56-2.41h1.57l-1.93,2.84,2,3.18h-1.61l-1.49-2.38h-1.06v2.38h-1.39ZM156.53,67.57c-2.6.09-3.6-2.64-2.62-4.72.94-1.96,4.28-1.98,5.21.01.96,2.07.02,4.8-2.59,4.71ZM156.52,66.3c1.44.08,1.86-1.61,1.43-2.71-.39-1.25-2.47-1.25-2.86,0-.44,1.11-.02,2.79,1.44,2.71ZM160.63,67.49v-6.02h4.27v1.23h-2.87v4.79h-1.39ZM168.49,67.57c-2.6.09-3.6-2.64-2.62-4.72.94-1.96,4.28-1.98,5.21.01.96,2.07.02,4.8-2.59,4.71ZM168.48,66.3c1.44.08,1.86-1.61,1.43-2.71-.39-1.25-2.47-1.25-2.86,0-.44,1.11-.02,2.79,1.44,2.71ZM82.94,30.34V6.25l21.05-.05v24.09h-4.86V10.69l-11.34.05v19.6h-4.86ZM129.48,11.84c-2.06-3.92-5.84-5.86-10.39-5.84-4.6-.03-8.45,1.89-10.53,5.86-.97,1.86-1.45,4.01-1.46,6.46-.15,7.06,4.6,12.45,11.82,12.31,7.25.19,12.08-5.28,11.98-12.35,0-2.45-.47-4.6-1.43-6.44ZM124.14,23.88c-2.54,2.73-7.09,2.92-9.86.42-3.38-2.77-3.51-8.8-.25-11.72,1.38-1.36,3.38-2.13,5.36-2,6.59.4,9.19,8.8,4.75,13.31ZM131.5,30.44v-4.56c4.8.06,3.55-6.52,3.77-9.63,0,0,.1-10,.1-10l17.39-.05v24.09h-4.89V10.72l-7.92.05c-.04,2.96-.07,7.86-.19,10.67.01,5.15-1.93,9.09-8.27,9ZM156.63,30.35V6.26h4.86v14.98l11.44-14.93,4.72-.05v24.09h-4.86v-15.7l-12.02,15.7h-4.14ZM187.76,30.32V10.76h-8.06v-4.53h21.04v4.53h-8.09v19.56h-4.89ZM202.92,30.32V6.24h17.32v4.53h-12.47v5.44h11.62v4.35h-11.62v5.27h12.47v4.49h-17.32ZM221.73,30.27l7.79-11.99-7.73-12.1h5.88l4.98,8.03,4.9-7.98h5.77l-7.79,12.01,7.79,12.03h-5.88l-5-8.44-5.18,8.44h-5.54Z"/><path fill="#3aa935" d="M5,6.12v63.88h63.91V6.12H5ZM53.64,26.27c-.4.12-1.64.36-1.64.36l-.06,24.5,7.1.02-.02,7.48-15.36-.04.07-31.68-12.99-.03-.08,18.12c0,1.4-.21,2.78-.6,4.11-1.14,3.87-3.86,7.12-7.49,8.92-1.15.59-2.39.99-3.67,1.25-1.38.26-2.81.34-4.27.19l.02-7.58c2.99.33,5.97-1.32,7.21-4.06.35-.67.71-1.54.69-2.86,0-1.04,0-18.31,0-18.31-3.1.69-5.37,3.22-6.81,5.78l-6.77-3.86c.75-1.4,2.1-3.61,3.02-4.66,2.15-2.47,4.85-4.14,7.07-4.72.8-.21,2.48-.53,3.88-.53,5.98,0,26.39-.04,26.39-.04,3.34,0,6.34-1.75,7.96-4.64l6.63,3.87c-2.09,4.15-5.82,7.2-10.3,8.41Z"/></svg>